PathFileType	4	(X/Y/Z)	G:\Shared drives\HIT\Data\HapticPilot\Subject1\Edited\RHJC1.trc
DataRate	CameraRate	NumFrames	NumMarkers	Units	OrigDataRate	OrigDataStartFrame	OrigNumFrames
50.00	50.00	       4	38	mm	50.00	286	       571
Frame#	Time	r_knee			r_shank(antsup)			r_ankle			r_calc			r_5meta			r_toe			L_knee			L_shank(ant_sup)			L_ankle			L_calc			L_5meta			L_toe			r_mknee			r_mankle			L_mknee			L_mankle			r_sh2			r_sh3			r_sh4			L_sh2			L_sh3			r_thigh1			r_thigh2			r_thigh3			r_thigh4			r_thigh5			L_thigh1			L_thigh2			L_thigh3			L_thigh4			r.ASIS			r.PSIS			L.ASIS			L.PSIS			C7			R_Shoulder			L_Shoulder			Sternum			
		X1	Y1	Z1	X2	Y2	Z2	X3	Y3	Z3	X4	Y4	Z4	X5	Y5	Z5	X6	Y6	Z6	X7	Y7	Z7	X8	Y8	Z8	X9	Y9	Z9	X10	Y10	Z10	X11	Y11	Z11	X12	Y12	Z12	X13	Y13	Z13	X14	Y14	Z14	X15	Y15	Z15	X16	Y16	Z16	X17	Y17	Z17	X18	Y18	Z18	X19	Y19	Z19	X20	Y20	Z20	X21	Y21	Z21	X22	Y22	Z22	X23	Y23	Z23	X24	Y24	Z24	X25	Y25	Z25	X26	Y26	Z26	X27	Y27	Z27	X28	Y28	Z28	X29	Y29	Z29	X30	Y30	Z30	X31	Y31	Z31	X32	Y32	Z32	X33	Y33	Z33	X34	Y34	Z34	X35	Y35	Z35	X36	Y36	Z36	X37	Y37	Z37	X38	Y38	Z38	

286	5.700	573.42834	407.99301	785.28546	532.54114	361.85260	718.32288	239.68423	202.24712	517.56317	137.99657	241.15874	528.92548	270.30249	128.22432	405.94501	315.30548	190.21376	377.85562	744.21100	867.48260	566.71869	774.32318	855.52393	448.49005	696.47119	812.39587	108.95044	620.66302	755.40625	71.70815	814.06317	849.24976	41.54424	860.53467	792.51184	69.61765	548.65283	509.23212	709.41833	239.40759	288.31201	473.69962	769.65576	745.35742	569.34924	726.38232	722.70074	122.75597	451.37018	304.18283	652.10400	479.35950	370.32388	771.67120	395.98816	312.95111	714.16010	685.58374	874.39612	465.27750	675.80798	859.68445	343.97925	774.11365	539.43573	1012.90704	727.17987	487.99548	921.00696	672.78455	470.39230	918.81488	669.25684	550.23297	1054.33594	624.88647	503.05594	956.16101	815.99408	919.36365	834.42432	824.51031	901.68652	697.45111	700.10522	927.29401	826.63098	712.49768	896.78412	695.15808	864.98407	668.27625	1148.64954	678.60724	767.12347	1187.30481	843.17700	915.39642	1071.13110	673.43121	843.10809	1156.24915	790.30304	872.23218	1629.93237	831.59869	710.51166	1612.74072	839.04297	1050.06873	1562.51331	912.95068	865.72198	1529.75244	
287	5.720	567.40387	403.57263	794.66925	524.55176	356.85760	728.94440	224.63774	196.90329	540.11884	123.01552	236.89113	553.88550	250.62723	120.61899	428.98590	295.34811	181.72060	398.40811	742.61023	867.41553	566.85394	773.02441	855.53870	448.79959	696.27100	812.72119	108.84950	620.52826	755.56854	71.61169	814.06647	849.10718	41.60496	860.41711	792.36157	69.71900	542.46136	503.70026	716.70447	223.20499	281.91006	494.56570	767.85956	745.28613	569.42902	726.14233	722.94611	122.93336	440.92575	298.97455	666.37866	473.07224	367.09250	783.97040	387.56366	309.14676	729.72986	684.35040	874.55634	465.43506	674.69830	859.74841	344.17145	772.17102	538.46216	1016.40857	723.30627	485.51700	926.15076	668.96991	468.09589	926.17664	667.95703	551.27820	1058.69788	622.10181	502.12823	962.47223	814.93024	919.20538	834.20874	823.09039	901.21185	697.16693	699.06897	926.77454	826.91888	711.03326	896.39600	695.60950	865.57007	668.32556	1149.06921	680.07428	768.02765	1189.38513	843.49445	915.22003	1070.57776	674.49231	843.75415	1157.59668	792.09192	873.03571	1630.02502	833.31799	711.30127	1612.71448	840.97833	1050.97571	1562.67981	914.66254	866.49860	1529.89636	
288	5.740	561.71698	399.93781	803.15662	516.83978	352.35025	738.76208	210.08180	192.26617	561.49896	109.50166	233.15768	577.39075	235.78140	114.27833	450.76492	277.54623	174.75005	418.20099	741.08923	867.33240	567.11176	771.82520	855.53223	449.19589	696.10394	813.04211	108.79433	620.44556	755.69812	71.53489	814.09766	848.99414	41.63165	860.25299	792.17102	69.85643	536.07941	499.08780	723.84271	208.33788	276.68073	514.70935	765.82025	745.08081	569.60461	725.76379	723.22522	123.01776	431.08255	294.39655	679.72253	467.47726	363.75687	795.34192	379.73932	306.07037	744.64343	683.16675	874.61133	465.83936	673.62793	860.03918	344.29141	770.55438	537.57892	1019.39575	721.15765	483.74081	930.66534	665.73120	466.23810	932.03204	667.01398	551.74359	1062.93787	619.41589	501.24271	968.55066	813.91949	918.76733	834.08368	821.45160	900.93494	697.10565	697.94806	926.46686	827.38367	709.33105	896.07910	695.95154	866.16492	668.48639	1149.29553	681.67578	768.91779	1191.16870	844.05920	914.96356	1070.11780	675.63275	844.37854	1158.97058	793.86847	873.77502	1630.09546	834.79956	711.99084	1612.72156	842.88098	1051.66760	1562.88757	916.59656	867.14612	1530.09534	
289	5.760	556.54871	396.66547	811.02454	509.71112	348.80530	748.50671	197.99889	187.99249	580.96588	98.02138	229.73398	598.67188	218.52214	108.06754	471.04886	261.58752	167.75145	436.45541	739.66119	867.35474	567.48706	770.83325	855.58325	449.69788	695.86786	813.34882	108.74338	620.33606	755.83136	71.47041	814.22131	848.82886	41.79859	860.10291	791.95074	70.00348	529.34009	495.18152	730.86786	195.19377	271.87277	533.67944	763.98267	744.73792	569.77948	725.43665	723.54834	123.15655	422.41745	290.38733	692.23578	462.03809	361.15338	805.85626	372.86047	303.32114	758.12274	682.30139	874.38263	466.24133	672.95953	859.94568	344.74832	769.10211	536.75891	1022.02551	717.09613	482.31522	934.32013	662.65454	464.60486	937.25909	666.25073	551.90692	1066.96008	616.93085	500.17508	973.80481	813.13312	918.17181	834.02655	820.23535	900.06873	696.97314	697.01074	926.20154	827.57019	708.38403	895.75067	696.05347	866.78351	668.69293	1149.34082	682.81702	769.39539	1192.93066	843.66577	914.83301	1069.15271	676.67200	844.53815	1160.11279	795.78204	874.41357	1630.08813	836.40607	712.56805	1612.68115	844.93079	1052.22827	1562.97156	918.50500	867.67041	1530.15503	
